# xmcd
#
# Track frame offsets:
#	150
#	20229
#	36210
#	59295
#	72363
#	90006
#	115351
#	130860
#	141618
#	158334
#	182982
#	195978
#	219984
#
# Disc length: 3601 seconds
#
# Revision: 0
# Processed by: cddbd v1.5.2PL0 Copyright (c) Steve Scherf et al.
# Submitted via: EasyCDDAExtractor 8.2.3.1
#
DISCID=b50e0f0d
DTITLE="Sir" Oliver Mally's Blues Distillery - Wild Streak
DYEAR=1996
DGENRE=Blues
TTITLE0=Wild Streak
TTITLE1=Honey Hush
TTITLE2=Howlin' Wolf
TTITLE3=Sugar Mama
TTITLE4=Can't Get Along With You
TTITLE5=Too Hurt To Cry
TTITLE6=Running In Circles
TTITLE7=High Heel Blues
TTITLE8=I'm Goin' Mad
TTITLE9=You Threw Your Love On Me Too Strong
TTITLE10=She's Long And Lean
TTITLE11=All Your Love
TTITLE12=Devil In Disguise
EXTD=
EXTT0=
EXTT1=
EXTT2=
EXTT3=
EXTT4=
EXTT5=
EXTT6=
EXTT7=
EXTT8=
EXTT9=
EXTT10=
EXTT11=
EXTT12=
PLAYORDER=
